<?xml version="1.0" standalone="no"?>
<!DOCTYPE svg PUBLIC "-//W3C//DTD SVG 20010904//EN"
 "http://www.w3.org/TR/2001/REC-SVG-20010904/DTD/svg10.dtd">
<svg version="1.0" xmlns="http://www.w3.org/2000/svg"
 width="120.000000pt" height="120.000000pt" viewBox="0 0 120.000000 120.000000"
 preserveAspectRatio="xMidYMid meet">
<metadata>
Created by potrace 1.11, written by Peter Selinger 2001-2013
</metadata>
<g transform="translate(0.000000,120.000000) scale(0.100000,-0.100000)"
fill="#000000" stroke="none">
<path d="M548 1185 c-3 -3 -37 -7 -75 -9 -123 -6 -231 -87 -248 -187 -3 -18
-8 -36 -11 -40 -2 -4 0 -10 4 -13 5 -3 15 6 22 19 7 14 17 25 21 25 4 0 15 8
25 17 16 16 16 16 9 -6 -6 -21 -5 -23 15 -18 20 5 19 2 -9 -25 -33 -32 -48
-69 -36 -88 5 -8 11 -8 21 1 19 15 18 2 -1 -17 -20 -20 -19 -44 4 -73 l19 -24
14 29 c9 16 13 35 11 42 -3 6 2 12 10 12 9 0 30 19 48 41 l33 42 -18 31 -18
31 26 -24 c14 -14 27 -23 29 -20 43 57 47 60 47 45 0 -19 11 -21 30 -3 8 6 7
3 -3 -9 -21 -26 -21 -34 -1 -63 l17 -24 19 24 19 24 -3 -37 c-2 -21 -1 -38 2
-38 11 0 3 -224 -9 -268 -7 -23 -9 -47 -6 -52 3 -6 -4 -10 -17 -11 -13 0 -32
-2 -43 -4 -11 -2 -36 -7 -55 -10 -98 -17 -271 -117 -323 -187 -23 -31 -36
-128 -18 -128 7 0 9 -4 6 -10 -3 -5 -2 -10 4 -10 5 0 13 -9 16 -20 4 -11 10
-18 15 -15 5 3 16 -5 24 -17 9 -12 16 -19 16 -15 0 4 15 0 32 -10 18 -9 35
-18 38 -18 3 -1 12 -5 20 -8 35 -15 76 -29 95 -33 87 -17 115 -20 153 -20 23
1 42 -3 42 -9 0 -7 3 -7 8 0 4 6 45 10 92 10 47 0 90 2 95 4 6 3 19 6 30 7 55
6 205 54 205 66 0 4 7 8 15 8 8 0 15 5 15 11 0 5 3 8 8 6 9 -6 65 52 71 73 2
8 5 35 6 58 1 35 -3 49 -24 70 -15 15 -37 42 -50 59 -45 65 -160 123 -271 139
-30 4 -62 7 -70 6 -13 0 -15 20 -15 126 0 81 -5 139 -13 161 -7 18 -11 40 -8
47 3 8 -2 30 -11 48 -15 33 -15 35 6 57 l22 24 -10 -26 c-8 -22 -5 -31 23 -62
23 -26 35 -33 47 -27 13 8 15 5 12 -13 -5 -29 21 -66 37 -51 20 20 22 65 4 85
-9 11 -12 19 -6 19 6 0 13 -6 16 -12 3 -7 4 3 2 23 -4 45 -12 58 -40 69 -19 8
-19 9 7 9 31 1 73 -36 95 -83 25 -55 49 -11 38 70 -17 124 -109 197 -239 188
-39 -3 -68 0 -72 6 -7 11 -28 14 -37 5z m-60 -161 c-4 -3 -12 5 -18 18 -12 22
-12 22 6 6 10 -10 15 -20 12 -24z"/>
</g>
</svg>
